<svg width="240" height="240" viewBox="0 0 240 240" fill="none" xmlns="http://www.w3.org/2000/svg">
<g filter="url(#filter0_b_2852_7318)">
<path d="M0 20C0 8.9543 8.95431 0 20 0H220C231.046 0 240 8.95431 240 20V240H0V20Z" fill="white" fill-opacity="0.1"/>
<path d="M84.3355 137.578L93.7887 84.0237C93.8547 83.6195 94.0006 83.2325 94.2178 82.8853C94.4349 82.538 94.719 82.2375 95.0535 82.0011C95.388 81.7648 95.7662 81.5974 96.166 81.5087C96.5659 81.4201 96.9794 81.4119 97.3824 81.4846L118.945 85.2737C119.76 85.426 120.482 85.8919 120.957 86.5713C121.432 87.2506 121.621 88.0891 121.484 88.9065L111.992 142.774C111.342 146.401 109.298 149.629 106.297 151.769C103.297 153.908 99.578 154.787 95.9371 154.219C88.1637 152.969 82.9684 145.352 84.3355 137.578Z" stroke="white" stroke-width="3" stroke-linecap="round" stroke-linejoin="round"/>
<path d="M116.21 118.75L144.687 108.399C145.074 108.256 145.485 108.191 145.898 108.208C146.31 108.225 146.715 108.323 147.089 108.498C147.463 108.672 147.799 108.919 148.077 109.223C148.355 109.528 148.57 109.885 148.71 110.274L156.21 130.82C156.487 131.598 156.445 132.453 156.093 133.199C155.742 133.945 155.11 134.523 154.335 134.805L102.929 153.516" stroke="white" stroke-width="3" stroke-linecap="round" stroke-linejoin="round"/>
<path d="M155.938 133.477V151.25C155.938 152.079 155.608 152.874 155.022 153.46C154.436 154.046 153.641 154.375 152.812 154.375H98.125" stroke="white" stroke-width="3" stroke-linecap="round" stroke-linejoin="round"/>
<path d="M98.125 145C100.714 145 102.812 142.901 102.812 140.312C102.812 137.724 100.714 135.625 98.125 135.625C95.5362 135.625 93.4375 137.724 93.4375 140.312C93.4375 142.901 95.5362 145 98.125 145Z" fill="white"/>
</g>
<defs>
<filter id="filter0_b_2852_7318" x="-15" y="-15" width="270" height="270" filterUnits="userSpaceOnUse" color-interpolation-filters="sRGB">
<feFlood flood-opacity="0" result="BackgroundImageFix"/>
<feGaussianBlur in="BackgroundImageFix" stdDeviation="7.5"/>
<feComposite in2="SourceAlpha" operator="in" result="effect1_backgroundBlur_2852_7318"/>
<feBlend mode="normal" in="SourceGraphic" in2="effect1_backgroundBlur_2852_7318" result="shape"/>
</filter>
</defs>
</svg>
