<svg width="240" height="240" viewBox="0 0 240 240" fill="none" xmlns="http://www.w3.org/2000/svg">
<g filter="url(#filter0_b_2852_7331)">
<path d="M0 20C0 8.9543 8.95431 0 20 0H220C231.046 0 240 8.95431 240 20V240H0V20Z" fill="white" fill-opacity="0.1"/>
<path d="M140.312 148.125C146.353 148.125 151.25 143.228 151.25 137.188C151.25 131.147 146.353 126.25 140.312 126.25C134.272 126.25 129.375 131.147 129.375 137.188C129.375 143.228 134.272 148.125 140.312 148.125Z" stroke="white" stroke-width="3" stroke-linecap="round" stroke-linejoin="round"/>
<path d="M90.3125 160.625C96.3531 160.625 101.25 155.728 101.25 149.688C101.25 143.647 96.3531 138.75 90.3125 138.75C84.2719 138.75 79.375 143.647 79.375 149.688C79.375 155.728 84.2719 160.625 90.3125 160.625Z" stroke="white" stroke-width="3" stroke-linecap="round" stroke-linejoin="round"/>
<path d="M151.25 101.25L101.25 113.75" stroke="white" stroke-width="3" stroke-linecap="round" stroke-linejoin="round"/>
<path d="M101.25 149.688V95L151.25 82.5V137.188" stroke="white" stroke-width="3" stroke-linecap="round" stroke-linejoin="round"/>
</g>
<defs>
<filter id="filter0_b_2852_7331" x="-15" y="-15" width="270" height="270" filterUnits="userSpaceOnUse" color-interpolation-filters="sRGB">
<feFlood flood-opacity="0" result="BackgroundImageFix"/>
<feGaussianBlur in="BackgroundImageFix" stdDeviation="7.5"/>
<feComposite in2="SourceAlpha" operator="in" result="effect1_backgroundBlur_2852_7331"/>
<feBlend mode="normal" in="SourceGraphic" in2="effect1_backgroundBlur_2852_7331" result="shape"/>
</filter>
</defs>
</svg>
