<svg width="240" height="240" viewBox="0 0 240 240" fill="none" xmlns="http://www.w3.org/2000/svg">
<g filter="url(#filter0_b_2852_7398)">
<path d="M0 20C0 8.9543 8.95431 0 20 0H220C231.046 0 240 8.95431 240 20V240H0V20Z" fill="white" fill-opacity="0.1"/>
<path d="M120 154.375C138.985 154.375 154.375 138.985 154.375 120C154.375 101.015 138.985 85.625 120 85.625C101.015 85.625 85.625 101.015 85.625 120C85.625 138.985 101.015 154.375 120 154.375Z" stroke="white" stroke-width="3" stroke-linecap="round" stroke-linejoin="round"/>
<path d="M141.953 93.5547C152.773 90.586 160.898 90.8594 163.32 95C167.617 102.461 151.719 119.727 127.812 133.516C103.906 147.305 81.0154 152.461 76.6795 145C74.2967 140.859 78.1248 133.672 86.0936 125.781" stroke="white" stroke-width="3" stroke-linecap="round" stroke-linejoin="round"/>
</g>
<defs>
<filter id="filter0_b_2852_7398" x="-15" y="-15" width="270" height="270" filterUnits="userSpaceOnUse" color-interpolation-filters="sRGB">
<feFlood flood-opacity="0" result="BackgroundImageFix"/>
<feGaussianBlur in="BackgroundImageFix" stdDeviation="7.5"/>
<feComposite in2="SourceAlpha" operator="in" result="effect1_backgroundBlur_2852_7398"/>
<feBlend mode="normal" in="SourceGraphic" in2="effect1_backgroundBlur_2852_7398" result="shape"/>
</filter>
</defs>
</svg>
